<svg id="Layer_1" data-name="Layer 1" xmlns="http://www.w3.org/2000/svg" viewBox="0 0 71.27 45.78"><defs><style>.cls-1{fill:#52d0d9;}.cls-2{fill:#fff;}.cls-3{fill:#37bbc7;}.cls-4{fill:#dffbff;}.cls-5{fill:#102a42;}</style></defs><title>Tour-logo</title><path class="cls-1" d="M9-4.35a17.51,17.51,0,0,1,14.4-12c.76-.1,1.52-.08,2.28-.11,7,.18,12.34,3.27,15.63,9.41a19.9,19.9,0,0,1,1.18,2.65" transform="translate(-8.13 16.41)"/><path class="cls-2" d="M42.53-3.84a.11.11,0,0,1,0,.07l-5.84,0H29.14a4.31,4.31,0,0,0-.95.09l-.14,0L28-.94V-.5C28,3,28,6.48,28,10v1.84c0,5.49,0,11,.05,16.39a2.67,2.67,0,0,1-3.9.52c.13-5.26.08-10.68.08-16.09V10.14c0-3.58,0-7.16,0-10.64V-.94c0-.95,0-1.88-.06-2.81H24c-.73,0-1.47-.07-2.22-.08H42.53Z" transform="translate(-8.13 16.41)"/><path class="cls-3" d="M43.47,3.69a17.35,17.35,0,0,1-3,7.76c-1.6,2.33-3.25,4.61-4.94,6.88V8.08c0-1.19-.06-2.36,0-3.51h0c.07-.28.14-.56.2-.85h.11C38.3,3.64,40.93,3.7,43.47,3.69Z" transform="translate(-8.13 16.41)"/><path class="cls-3" d="M16.8,11.82c0,2.48.05,5,0,7.27a.76.76,0,0,1,0,.15c-1.89-2.8-3.76-5.62-5.56-8.49A20.19,20.19,0,0,1,8.23,2c2,0,4.17-.11,6.15,0h1.1a4.22,4.22,0,0,1,1.24.17c.05.8.08,1.65.09,2.53,0,.4,0,.81,0,1.22C16.83,7.78,16.8,9.78,16.8,11.82Z" transform="translate(-8.13 16.41)"/><path class="cls-4" d="M24.19,12.65c0,5.41,0,10.83-.08,16.09a3.84,3.84,0,0,1-.65-.68c-2.21-2.95-4.46-5.87-6.67-8.82a.62.62,0,0,0,0-.13c.05-2.08,0-4.35,0-6.58,0-1.85,0-3.66,0-5.36,0-.38,0-.75,0-1.11,0-.8,0-1.56-.09-2.29a5,5,0,0,0-1.24-.15h-.2l-.8,0h-.1c-2-.09-4.13,0-6.15,0A17.63,17.63,0,0,1,9-3.83H21.75c.75,0,1.49,0,2.22.08h.14c0,.93,0,1.86.06,2.81V-.5c0,3.48,0,7.06,0,10.64v2.51Z" transform="translate(-8.13 16.41)"/><path class="cls-4" d="M43.47,3.69c-2.54,0-5.17,0-7.65,0H35.6c0,.19-.05.38-.07.57a2.64,2.64,0,0,0,0,.28h0c-.09,1.15,0,2.32,0,3.51V18.33c-2.43,3.27-4.91,6.49-7.36,9.75a1.71,1.71,0,0,0-.11.14c0-5.4-.05-10.9-.05-16.39V10C28,6.48,28,3,28-.5V-.94l0-2.77.14,0a4.31,4.31,0,0,1,.95-.09h7.58l5.84,0A16.09,16.09,0,0,1,43.47,3.69Z" transform="translate(-8.13 16.41)"/><rect class="cls-3" x="17.15" y="13.59" width="1.24" height="15.27"/><rect class="cls-3" x="17.15" y="30.44" width="1.24" height="15.27"/><path class="cls-5" d="M56-1.14V.65H52.5v9.93H50.32V.65H46.78V-1.14Z" transform="translate(-8.13 16.41)"/><path class="cls-5" d="M59.2,2.13a4.54,4.54,0,0,1,1.69.3,3.76,3.76,0,0,1,1.3.85A3.82,3.82,0,0,1,63,4.63a5,5,0,0,1,.3,1.78A5,5,0,0,1,63,8.19a4,4,0,0,1-.82,1.36,3.65,3.65,0,0,1-1.3.86,4.91,4.91,0,0,1-3.38,0,3.56,3.56,0,0,1-1.3-.86,4,4,0,0,1-.84-1.36,5,5,0,0,1-.3-1.78,5,5,0,0,1,.3-1.78,3.86,3.86,0,0,1,.84-1.35,3.67,3.67,0,0,1,1.3-.85A4.58,4.58,0,0,1,59.2,2.13Zm0,7a1.77,1.77,0,0,0,1.54-.69,3.54,3.54,0,0,0,.5-2.05,3.57,3.57,0,0,0-.5-2,1.76,1.76,0,0,0-1.54-.7,1.78,1.78,0,0,0-1.56.71,3.53,3.53,0,0,0-.5,2,3.49,3.49,0,0,0,.5,2A1.79,1.79,0,0,0,59.2,9.16Z" transform="translate(-8.13 16.41)"/><path class="cls-5" d="M66.71,2.26V7.55a1.75,1.75,0,0,0,.35,1.18,1.3,1.3,0,0,0,1.06.42,2.16,2.16,0,0,0,1-.23A3.63,3.63,0,0,0,70,8.28v-6h2v8.32H70.73a.49.49,0,0,1-.51-.36l-.14-.67a4,4,0,0,1-.54.48,3.5,3.5,0,0,1-.58.36,3.64,3.64,0,0,1-.68.24,3.19,3.19,0,0,1-.77.08,2.87,2.87,0,0,1-1.21-.23,2.38,2.38,0,0,1-.88-.65,3.2,3.2,0,0,1-.54-1,4.3,4.3,0,0,1-.18-1.28V2.26Z" transform="translate(-8.13 16.41)"/><path class="cls-5" d="M74.09,10.58V2.26h1.18a.6.6,0,0,1,.43.12.59.59,0,0,1,.16.38l.12,1a4.09,4.09,0,0,1,1-1.22,2.25,2.25,0,0,1,1.35-.44,1.73,1.73,0,0,1,1,.28l-.26,1.5A.3.3,0,0,1,79,4.1a.33.33,0,0,1-.21.06,1.28,1.28,0,0,1-.34-.06,2.68,2.68,0,0,0-.56,0,1.71,1.71,0,0,0-1.07.34,2.7,2.7,0,0,0-.75,1v5.18Z" transform="translate(-8.13 16.41)"/></svg>